<svg width="22" height="22" viewBox="0 0 22 22" fill="none" xmlns="http://www.w3.org/2000/svg">
<circle cx="11" cy="11" r="10.4" stroke="black" stroke-width="1.2"/>
<path d="M8.95303 16.9125C8.31371 16.9125 7.65567 16.8607 6.99368 16.757C5.82773 16.574 4.64745 15.9641 4.31346 15.7815L3.4375 15.3026L4.38588 14.9907C5.42257 14.6498 6.0532 14.4384 6.83385 14.1072C6.05219 13.7287 5.44975 13.0477 5.15976 12.1675L4.93913 11.4977L5.12005 11.5253C4.94849 11.3524 4.81303 11.1769 4.70802 11.0173C4.33455 10.4501 4.13683 9.75694 4.1789 9.16296L4.22041 8.57835L4.57041 8.71393C4.42276 8.4351 4.31606 8.13732 4.25334 7.82522C4.10051 7.06408 4.22841 6.25546 4.61361 5.54835L4.91849 4.98867L5.32624 5.47842C6.61582 7.02754 8.2492 7.94648 10.1878 8.21549C10.1086 7.66968 10.1679 7.14293 10.3643 6.67077C10.5929 6.12101 10.9997 5.65483 11.5402 5.32254C12.1405 4.95359 12.8685 4.77481 13.59 4.81914C14.3555 4.86617 15.0506 5.15301 15.6026 5.64919C15.8722 5.57915 16.0708 5.50436 16.3393 5.4033C16.5008 5.3425 16.684 5.27347 16.9132 5.19452L17.7578 4.90351L17.207 6.47654C17.2433 6.47349 17.2808 6.4709 17.3199 6.46921L18.2218 6.42838L17.6887 7.15691C17.6582 7.19865 17.6504 7.21049 17.6396 7.22685C17.5966 7.29159 17.5431 7.37213 16.8114 8.34915C16.6282 8.5938 16.5368 8.91245 16.5538 9.24654C16.6187 10.5162 16.4629 11.6649 16.0905 12.6606C15.7384 13.6027 15.1927 14.4109 14.4688 15.063C13.573 15.8697 12.4307 16.4221 11.0736 16.7045C10.4079 16.843 9.69296 16.9125 8.95303 16.9125Z" fill="#4D4D4D"/>
</svg>
