<svg width="565" height="664" viewBox="0 0 565 664" fill="none" xmlns="http://www.w3.org/2000/svg">
<circle cx="282" cy="332" r="200" fill="#EE002C"/>
<path d="M0 646.572C0 654.024 117.999 660.069 263.555 660.069C409.111 660.069 527.108 654.024 527.108 646.572C527.108 639.115 409.111 633.071 263.555 633.071C117.999 633.071 0 639.115 0 646.572Z" fill="#F2F2F2"/>
<path d="M298.949 99.3491C281.101 76.3486 254.791 66.2408 254.791 66.2408L215.933 111.717L207.883 141.832C207.883 141.832 218.346 164.635 232.653 162.08C246.972 159.524 247.609 152.056 247.609 152.056C247.609 152.056 256.133 162.279 265.316 162.279C282.2 162.279 280.639 149.03 282.753 145.76C294.862 151.296 316.802 122.355 298.949 99.3491" fill="#C5C6FE"/>
<path d="M254.587 66.4866L218.687 108.497C218.866 115.42 219.864 122.109 220.944 127.15C223.532 139.189 245.44 148.488 261.299 142.07C277.152 135.646 282.274 118.914 281.227 114.036C280.185 109.153 276.029 101.872 275.297 87.7385C275.015 82.3347 272.785 77.7447 270.126 74.1313C262.416 69.4056 256.421 66.8936 255.081 66.351C254.918 66.3944 254.756 66.4378 254.587 66.4866" fill="#9495BF"/>
<path d="M136.723 55.4903C136.723 55.4903 98.0938 71.0393 98.0938 88.6034C98.0938 106.163 114.655 139.777 114.655 139.777L147.763 117.7C147.763 117.7 130.705 99.6395 133.217 85.0887C135.724 70.5379 144.755 67.5293 144.755 67.5293L136.723 55.4903" fill="#E25050"/>
<path d="M140.738 90.1083C140.738 90.1083 161.201 154.919 210.922 165.41C260.648 175.9 175.375 250.153 163.577 250.153C151.774 250.153 98.0938 144.794 98.0938 123.22L140.738 90.1083Z" fill="#C3D1ED"/>
<path d="M210.922 165.41C208.042 164.801 205.258 164.013 202.569 163.06C187.845 170.502 170.103 180.466 159.612 189.917C153.325 195.581 148.9 210.925 146.576 230.581C154.06 242.36 160.369 250.153 163.577 250.153C175.375 250.153 260.648 175.9 210.922 165.41" fill="#929DB2"/>
<path d="M75.4144 552.6C75.4144 552.6 101.374 599.278 101.374 610.82C101.374 622.354 87.0564 627.436 77.5233 630.445C67.9901 633.455 50.4295 634.46 56.4523 640.483C62.4707 646.502 107.629 636.967 121.67 642.99C135.72 649.008 137.162 628.376 124.119 602.79C111.071 577.203 108.626 547.663 108.626 547.663L75.4144 552.6Z" fill="#FC7575"/>
<path d="M445.941 573.25C445.941 573.25 506.48 594.323 515.002 613.891C523.532 633.455 505.977 640.483 500.456 645.999C494.942 651.518 503.967 653.023 524.537 653.023C545.106 653.023 551.633 650.014 554.641 650.014C557.649 650.014 568.189 632.453 562.668 626.934C557.147 621.414 489.924 533.355 476.125 533.355C462.325 533.355 445.941 573.25 445.941 573.25" fill="#FC7575"/>
<path d="M162.228 386.28C162.228 386.28 52.9351 444.647 39.2246 458.361C25.5088 472.078 12.4668 525.925 12.4668 525.925L113.476 568.737L122.924 527.932L249.27 477.509L162.228 386.28Z" fill="#9EB6F5"/>
<path d="M185.391 456.352C185.391 456.352 380.385 578.103 387.076 606.866C387.076 606.866 472.768 589.407 484.136 531.881C484.136 531.881 436.576 492.475 412.499 487.127C388.415 481.775 328.233 378.869 328.233 378.869L304.842 356.445L185.391 456.352Z" fill="#C3D1ED"/>
<path d="M87.0547 453.731C87.0547 453.731 89.526 455.037 93.7153 457.076C106.169 463.142 133.759 475.678 156.292 479.433C186.388 484.449 293.192 541.411 293.192 501.688C293.192 494.483 287.736 377.093 297.775 367.056C307.809 357.018 328.23 378.869 328.23 378.869C328.23 378.869 301.662 345.068 293.192 345.068C284.728 345.068 176.605 357.5 176.605 357.5L136.225 387.119L87.0547 453.731Z" fill="#E3E4FF"/>
<path d="M298.728 365.378C285.081 372.928 291.93 496.398 291.166 503.559C288.426 534.925 187.478 483.818 156.669 478.219C134.244 474.588 107.493 463.478 87.0547 453.731C106.98 464.629 133.896 476.555 156.246 480.708C183.779 486.32 262.137 527.543 287.382 515.326C296.725 510.711 295.189 501.449 294.756 491.332C294.037 465.763 292.741 432.027 293.397 404.808C294.305 369.706 297.016 366.961 302.078 365.319C310.24 363.268 322.3 373.03 328.23 378.868C321.261 371.3 306.97 359.416 298.728 365.378" fill="#09839F"/>
<path d="M135.719 67.0302C135.719 67.0302 136.221 52.4775 130.202 52.4775C124.183 52.4775 120.227 67.0849 127.195 74.0532C134.163 81.0215 141.743 78.5709 141.743 78.5709L135.719 67.0302Z" fill="#FC7575"/>
<path d="M154.787 74.0538L157.293 65.7327C157.293 65.7327 162.902 58.585 157.969 53.6477C157.969 53.6477 157.383 46.8754 154.787 44.2848C154.787 44.2848 154.618 38.5966 146.26 37.428C137.896 36.2547 136.183 34.8092 133.382 36.4237C130.035 38.3526 127.759 45.3642 129.871 51.4747C131.983 57.5806 132.621 59.6691 132.621 63.8507C132.621 68.0324 132.715 69.8721 136.559 71.5429C140.407 73.2137 140.163 78.8784 140.163 78.8784C140.163 78.8784 149.015 79.8217 154.787 74.0538" fill="#FF9494"/>
<path d="M309.361 497.828C331.44 517.497 365.816 533.112 392.613 536.699C406.134 539.227 423.565 538.972 423.363 538.967C427.342 538.985 427.323 545.007 423.338 544.994C417.104 544.959 402.118 543.587 391.76 541.133C370.679 537.256 347.678 525.113 347.476 525.02C338.236 519.659 323.963 512.154 309.361 497.828" fill="white"/>
<path d="M346.94 505.187C353.781 506.674 415.624 535.97 445.027 525.734L445.04 525.73C448.897 524.384 450.802 530.332 446.855 531.466C414.183 540.815 355.15 507.481 346.94 505.187" fill="white"/>
<path d="M49.2617 469.734C81.8151 546.216 97.3815 553.84 97.2579 553.642C100.629 555.958 96.9447 561.037 93.684 558.491C77.1249 545.422 56.308 489.563 49.2617 469.734Z" fill="white"/>
<path d="M67.3203 487.794C91.3797 513.985 120.111 521.194 119.911 521.102C121.502 521.583 122.404 523.268 121.92 524.861C121.413 526.542 119.564 527.455 117.893 526.78C96.949 518.238 79.5656 503.947 67.3203 487.794" fill="white"/>
<path d="M509.989 650.517C509.989 650.517 502.893 643.982 499.146 647.728C495.399 651.474 497.18 661.049 505.092 659.796C505.092 659.796 512.253 664.314 516.766 662.306C521.28 660.299 521.28 660.299 521.28 660.299C521.28 660.299 526.297 664.332 527.801 662.818C529.32 661.309 531.314 660.047 531.314 660.047C531.314 660.047 534.827 659.796 538.844 659.796C542.86 659.796 543.605 657.038 543.605 657.038C543.605 657.038 548.204 656.787 550.127 654.863C552.05 652.939 554.648 650.014 554.648 650.014C554.648 650.014 545.869 646.753 542.101 648.258C538.34 649.762 539.922 652.335 539.922 652.335C539.922 652.335 537.836 650.265 533.819 650.265C529.81 650.265 527.298 651.015 527.298 651.015C527.298 651.015 524.04 649.008 522.287 649.008C520.527 649.008 518.775 649.511 518.775 649.511C518.775 649.511 509.989 644.243 509.989 650.517" fill="#E25050"/>
<path d="M225.019 166.992C225.019 166.992 194.681 171.591 176.353 189.919C158.031 208.245 157.29 327.918 181.375 367.052C181.375 367.052 270.283 367.973 293.188 345.068C298.036 340.224 322.855 259.188 322.855 259.188C322.855 259.188 340.916 194.813 310.81 181.595C280.714 168.376 263.549 166.992 225.019 166.992" fill="#E3E4FF"/>
<path d="M175.357 345.067L163.577 367.056C163.577 367.056 174.353 379.592 190.404 385.614C206.462 391.633 307.021 354.79 307.021 354.79L296.815 337.667C296.815 337.667 209.222 376.681 194.967 366.856C180.705 357.03 175.357 345.067 175.357 345.067" fill="#292929"/>
<path d="M210.978 549.172C210.978 549.172 218.429 394.79 200.945 388.623L205.977 371.871C205.977 371.871 221.011 379.592 224.525 402.67C228.039 425.748 224.525 561.208 224.525 561.208H211.482L210.978 549.172" fill="#292929"/>
<path d="M186.527 383.985C186.527 383.985 179.372 384.109 173.349 394.644C167.326 405.179 163.573 563.719 163.573 563.719H147.761C147.761 563.719 156.433 396.989 167.141 386.279C177.85 375.568 190.245 368.773 190.245 368.773L186.527 383.985Z" fill="#292929"/>
<path d="M317.636 186.152C317.636 186.152 307.024 204.998 307.024 229.079C307.024 253.162 319.618 269.646 319.618 269.646L307.024 298.818C307.024 298.818 364.005 305.841 360.987 330.927C360.987 330.927 374.036 284.267 371.024 265.705C368.011 247.142 341.009 192.39 317.636 186.152Z" fill="#F5F6FF"/>
<path d="M310.546 206.792C312.227 199.728 314.491 192.757 317.633 186.151C303.578 209.883 300.839 245.375 318.697 269.76C317.576 272.521 310.79 288.889 307.026 298.818C312.024 288.527 318.567 273.886 320.542 269.566C320.31 268.477 301.246 246.003 310.546 206.792Z" fill="#9EB6F5"/>
<path d="M359.166 276.829C358.924 276.16 352.989 260.432 335.863 260.432C329.762 260.432 321.515 261.745 320.782 267.736C333.941 262.203 350.281 271.034 350.997 271.427C352.155 272.067 351.192 273.826 350.027 273.187C349.856 273.092 332.67 263.823 320.268 270.19L319.086 270.793L318.825 269.496C318.796 269.365 318.199 266.254 320.593 263.325C323.247 260.074 328.385 258.425 335.863 258.425C354.413 258.425 360.993 275.968 361.058 276.144C361.507 277.389 359.628 278.078 359.166 276.829" fill="#9EB6F5"/>
<path d="M308.81 318.637C308.81 318.637 313.575 328.17 330.88 333.688C348.192 339.208 359.348 337.104 360.981 330.929C362.615 324.754 354.714 305.844 354.714 305.844L307.017 298.82C307.017 298.82 301.779 307.851 308.81 318.637Z" fill="#381A3F"/>
<path d="M319.152 301.469C314.459 304.47 308.931 306.851 303.542 306.344L300.649 327.44C300.649 327.44 311.321 325.91 329.637 319.386C339.648 315.819 346.421 310.458 350.518 306.325L319.152 301.469" fill="#E25050"/>
<path d="M351.452 305.363L320.249 300.768C315.791 303.787 310.438 306.372 305.15 306.413C305.056 309.803 305.829 314.061 308.806 318.637C308.806 318.637 310.087 321.201 313.738 324.442C318.073 323.242 323.408 321.604 329.632 319.388C340.437 315.539 347.486 309.591 351.452 305.363" fill="#E25050"/>
<path d="M309.143 302.573C304.9 298.327 297.235 298.819 292.003 303.085C287.273 306.947 282.722 303.336 285.227 305.845C287.737 308.353 297.017 305.845 297.017 308.606L309.103 306.842C308.774 304.429 309.143 302.573 309.143 302.573Z" fill="#E25050"/>
<path d="M309.144 302.574C304.984 298.744 292.634 302.042 286.529 302.617C284.387 302.819 279.3 302.206 277.073 304.839C274.847 307.474 272.616 323.403 275.589 323.403C278.558 323.403 279.676 329.361 281.003 330.927C282.324 332.494 287.839 332.683 287.839 332.683C287.839 332.683 293.831 330.927 296.591 330.927C299.352 330.927 305.867 326.663 307.379 322.65C308.503 319.681 314.221 307.25 309.144 302.574" fill="#FC7575"/>
<path d="M191.915 361.973L185.388 388.624H200.941L207.643 366.316L191.915 361.973Z" fill="black"/>
<path d="M63.4911 132.481C63.2087 132.481 62.9264 132.371 62.7102 132.155C51.2913 120.736 45.7451 107.102 46.2216 91.6329C47.5938 46.9547 99.3096 0.736575 99.8346 0.277704C100.285 -0.123809 100.977 -0.0885028 101.388 0.374781C101.789 0.829241 101.745 1.52197 101.291 1.92789C100.779 2.38235 49.7647 47.9783 48.4189 91.7035C47.9645 106.542 53.2944 119.629 64.2721 130.602C64.7 131.03 64.7 131.727 64.2721 132.155C64.0559 132.371 63.7735 132.481 63.4911 132.481" fill="#333333"/>
<path d="M235.03 273.699L262.122 175.448L260.585 167.773L255.516 166.988L225.316 256.101L235.03 273.699" fill="white"/>
<path d="M258.168 175.622C259.85 161.304 256.513 137.201 256.513 137.201L229.307 130.142L225.023 166.988L225.314 256.101L258.248 176.137L258.168 175.622Z" fill="#FC7575"/>
<path d="M229.308 130.137L227.867 142.557C235.286 150.208 247.991 154.73 257.958 150.841C257.336 143.122 256.518 137.197 256.518 137.197L229.308 130.137Z" fill="#E25050"/>
<path d="M225.313 256.101L225.026 166.991H217.255L214.528 273.7H235.03L225.313 256.101Z" fill="white"/>
<path d="M254.797 66.2395C254.797 66.2395 267.486 74.6554 268.347 88.1942C269.213 101.728 273.012 108.761 274.018 113.448C275.024 118.134 270.709 134.073 256.68 139.987C242.647 145.895 222.99 136.672 220.509 125.108C218.034 113.55 215.822 92.951 223.183 82.0813C230.534 71.2115 254.797 66.2395 254.797 66.2395" fill="#F98A8A"/>
<path d="M254.794 66.243C254.794 66.243 227.379 95.3244 222.768 110.307C218.163 125.284 232.651 128.843 228.588 145.76C226.758 153.387 217.574 167.397 205.615 159.969C193.655 152.541 198.108 147.494 198.108 147.494C198.108 147.494 179.246 151.49 177.332 136.218C175.419 120.947 184.14 97.9371 199.617 84.7895C232.83 56.5807 254.794 66.243 254.794 66.243" fill="#E3E4FF"/>
<path d="M254.793 66.243L243.932 79.8269C223.309 106.306 219.666 113.135 224.135 124.658C217.563 113.729 223.73 103.736 231.678 92.349C238.954 82.324 247.959 72.5303 254.793 66.243" fill="white"/>
<path d="M193.003 94.9092C203.733 80.4 233.561 60.4552 254.793 66.2431C234.812 57.4692 202.844 75.1273 189.586 92.2597C182.321 101.538 176.796 113.871 175.435 126.525C174.919 133.122 174.951 140.55 179.845 145.061C183.988 149.04 190.832 149.687 196.673 148.677C196.457 149.645 196.562 150.617 196.815 151.511C197.961 155.333 202.103 158.035 205.615 159.969C192.719 150.559 200.116 146.99 200.321 146.343C198.954 146.443 194.565 147.421 189.25 146.427C178.857 144.577 178.368 136.749 179.325 126.966C181.023 115.127 186.111 104.046 193.003 94.9092" fill="#C5C6FE"/>
<path d="M227.512 105.494C227.512 105.494 225.624 98.2863 218.523 101.992C211.418 105.703 217.185 117.008 222.392 117.369C227.594 117.735 227.512 105.494 227.512 105.494" fill="#F98A8A"/>
<path d="M250.04 123.664C244.016 123.579 241.094 121.677 241.955 121.946C241.406 121.613 240.867 122.427 241.416 122.76C242.251 122.898 245.527 126.084 258.552 123.87C259.202 123.759 259.044 122.813 258.389 122.924C258.389 122.924 253.379 123.674 250.04 123.664" fill="#1F1F1F"/>
<path d="M251.863 127.728C252.114 127.686 252.298 127.455 252.277 127.204C252.245 126.942 252.004 126.753 251.732 126.779C250.641 126.895 247.57 127.036 246.48 126.302C245.562 125.663 244.032 128.52 251.826 127.733C251.837 127.733 251.847 127.733 251.863 127.728" fill="#1F1F1F"/>
<path d="M255.354 112.882C254.744 111.415 253.077 108.953 251.509 109.631C249.973 110.515 248.526 111.32 247.316 112.556C248.958 112.025 250.357 111.02 251.888 110.51C252.503 109.873 253.618 111.378 255.354 112.882" fill="#1F1F1F"/>
<path d="M265.687 93.05C269.107 92.9805 269.113 95.1826 269.113 95.1826C269.113 95.1826 267.595 94.9902 265.58 94.3915L257.258 95.84C257.995 95.4284 262.49 93.1141 265.687 93.05Z" fill="#C5C6FE"/>
<path d="M238.968 94.5613C235.564 94.8793 235.762 97.0687 235.762 97.0687C235.762 97.0687 237.258 96.709 239.202 95.8854L247.616 96.3858C246.845 96.0626 242.158 94.2641 238.968 94.5613Z" fill="#C5C6FE"/>
<path d="M234.315 104.747C233.37 104.202 234.196 102.778 235.142 103.318C235.194 103.344 240.297 106.244 243.088 103.448C243.862 102.674 245.026 103.843 244.252 104.617C241.68 107.19 237.413 106.551 234.315 104.747" fill="#1F1F1F"/>
<path d="M268.427 105.21C269.379 104.686 268.588 103.237 267.631 103.761C267.577 103.787 262.402 106.557 259.68 103.686C258.927 102.895 257.729 104.033 258.483 104.825C260.996 107.466 265.278 106.936 268.427 105.21Z" fill="#1F1F1F"/>
</svg>
