<svg width="22" height="22" viewBox="0 0 22 22" fill="none" xmlns="http://www.w3.org/2000/svg">
<circle cx="11" cy="11" r="10.4" stroke="black" stroke-width="1.2"/>
<path d="M13.6371 4.8125H8.08786C6.2818 4.8125 4.8125 6.2818 4.8125 8.08786V13.6372C4.8125 15.4432 6.2818 16.9125 8.08786 16.9125H13.6372C15.4432 16.9125 16.9125 15.4432 16.9125 13.6372V8.08786C16.9125 6.2818 15.4432 4.8125 13.6371 4.8125V4.8125ZM10.8625 14.171C9.03816 14.171 7.554 12.6868 7.554 10.8625C7.554 9.03816 9.03816 7.554 10.8625 7.554C12.6868 7.554 14.171 9.03816 14.171 10.8625C14.171 12.6868 12.6868 14.171 10.8625 14.171ZM14.2501 8.33425C13.711 8.33425 13.2725 7.89575 13.2725 7.35663C13.2725 6.8175 13.711 6.37891 14.2501 6.37891C14.7892 6.37891 15.2278 6.8175 15.2278 7.35663C15.2278 7.89575 14.7892 8.33425 14.2501 8.33425Z" fill="#4D4D4D"/>
<path d="M10.8628 8.26331C9.42971 8.26331 8.26367 9.42925 8.26367 10.8625C8.26367 12.2956 9.42971 13.4616 10.8628 13.4616C12.296 13.4616 13.462 12.2956 13.462 10.8625C13.462 9.42925 12.296 8.26331 10.8628 8.26331Z" fill="#4D4D4D"/>
<path d="M14.2497 7.08838C14.1018 7.08838 13.9814 7.20876 13.9814 7.35665C13.9814 7.50454 14.1018 7.62492 14.2497 7.62492C14.3977 7.62492 14.5181 7.50463 14.5181 7.35665C14.5181 7.20867 14.3977 7.08838 14.2497 7.08838Z" fill="#4D4D4D"/>
</svg>
